<?xml version="1.0" encoding="UTF-8"?>
<svg id="Layer_2" xmlns="http://www.w3.org/2000/svg" xmlns:xlink="http://www.w3.org/1999/xlink" viewBox="0 0 111.19 125.25">
  <defs>
    <style>
      .cls-1 {
        fill: none;
      }

      .cls-2 {
        fill: #323232;
      }

      .cls-3 {
        fill: #444;
      }

      .cls-4 {
        fill: #a99c0a;
      }

      .cls-5 {
        fill: #d6d6d6;
      }

      .cls-6 {
        fill: #2f2f2f;
      }

      .cls-7 {
        fill: #545454;
      }

      .cls-8 {
        fill: #544804;
      }

      .cls-9 {
        fill: #938505;
      }

      .cls-10 {
        fill: #1d1d1d;
      }

      .cls-11 {
        fill: #e9be19;
      }

      .cls-12 {
        fill: #6b674b;
      }

      .cls-13 {
        fill: #c49510;
      }

      .cls-14 {
        fill: #b1b1b1;
      }

      .cls-15 {
        fill: #c6c6c6;
      }

      .cls-16 {
        fill: #56533c;
      }

      .cls-17 {
        fill: #44412f;
      }

      .cls-18 {
        fill: #5d5d5d;
      }

      .cls-19 {
        clip-path: url(#clippath-1);
      }

      .cls-20 {
        clip-path: url(#clippath-3);
      }

      .cls-21 {
        clip-path: url(#clippath-4);
      }

      .cls-22 {
        clip-path: url(#clippath-2);
      }

      .cls-23 {
        clip-path: url(#clippath-7);
      }

      .cls-24 {
        clip-path: url(#clippath-6);
      }

      .cls-25 {
        clip-path: url(#clippath-9);
      }

      .cls-26 {
        clip-path: url(#clippath-8);
      }

      .cls-27 {
        clip-path: url(#clippath-5);
      }

      .cls-28 {
        fill: #848484;
      }

      .cls-29 {
        fill: #6f6f6f;
      }

      .cls-30 {
        fill: #706305;
      }

      .cls-31 {
        fill: #9f9f9f;
      }

      .cls-32 {
        fill: #daad12;
      }

      .cls-33 {
        fill: #202020;
      }

      .cls-34 {
        fill: #f1cd31;
      }

      .cls-35 {
        fill: #a3780c;
      }

      .cls-36 {
        fill: #eaf28b;
      }

      .cls-37 {
        fill: #dfe261;
      }

      .cls-38 {
        clip-path: url(#clippath);
      }

      .cls-39 {
        fill: #e8e8e8;
      }

      .cls-40 {
        fill: #fdfdfd;
      }
    </style>
    <clipPath id="clippath">
      <path class="cls-11" d="M23.77,5.21c-.1.07-.25.18-.43.32-.41.01-1.01.1-1.51.5-.82.65-.91,1.75-.98,2.48-.18,1.76-.61,3.5-.85,5.25,0,0-.09.62-1.29,6.65h0c-.02.32-.69,4.98-2.01,14.32-.52,3.68-.97,6.66-1.27,8.56-2.18,18.86-4.36,37.73-6.54,56.59,3.15,1.61,7.67,3.7,13.33,5.57,4.94,1.64,8.8,2.47,10.64,2.86,8.8,1.87,29.93,6.16,58.15,11.66.55-2.28,1.1-4.55,1.65-6.83C73.4,78.39,54.16,43.62,34.92,8.86c-3.71-1.22-7.43-2.44-11.14-3.66Z"/>
    </clipPath>
    <clipPath id="clippath-1">
      <path class="cls-1" d="M25.96,98.56c-2.36-10.23-3.46-19.11-3.99-25.99-1.06-13.67-.26-24.53.13-29.92.24-3.26.54-6.32.76-8.45.71-7.15,1.17-11.61,2.29-17.17.67-3.34,1.37-6,1.82-7.63.08-.65.29-1.62.92-2.54.44-.65.8-.91.97-1.01.35-.21.7-.3,1.15-.36.57-.07,1.58-.13,2.93.17,1.22.19,3.03.48,5.22.86,3.84.66,14.52,2.58,36.36,8.36,15.9,4.21,22.73,6.51,26.93,7.41.29.06,1.26.27,2.51.71,2.7.95,4.74,2.29,6.16,3.4.03.98.07,2.43.1,4.19.17,8.39.04,12.93.07,17.8.05,6.93.39,8.98.62,15.26.29,7.9.73,19.7-1.08,32.35-.93,6.47-2.8,15.61-6.95,26.37-12.11.26-26.92-.78-42.26-5.13-12.89-3.66-20.18-7.96-23.19-9.86-5.03-3.17-8.86-6.39-11.48-8.82Z"/>
    </clipPath>
    <clipPath id="clippath-2">
      <ellipse class="cls-9" cx="43.4" cy="16.72" rx="4.29" ry="4.76" transform="translate(21.35 57.68) rotate(-82.77)"/>
    </clipPath>
    <clipPath id="clippath-3">
      <ellipse class="cls-9" cx="59.56" cy="20.99" rx="4.29" ry="4.76" transform="translate(31.24 77.44) rotate(-82.77)"/>
    </clipPath>
    <clipPath id="clippath-4">
      <ellipse class="cls-9" cx="75.72" cy="25.47" rx="4.29" ry="4.76" transform="translate(40.92 97.38) rotate(-82.77)"/>
    </clipPath>
    <clipPath id="clippath-5">
      <ellipse class="cls-9" cx="90.76" cy="29.33" rx="4.29" ry="4.76" transform="translate(50.24 115.68) rotate(-82.77)"/>
    </clipPath>
    <clipPath id="clippath-6">
      <path class="cls-28" d="M39.14,18.5c.73-.46,1.84-1.29,2.82-2.65,1.97-2.73,1.98-5.6,1.96-6.93-.02-1.73-.04-3.5-1.3-4.57-.25-.22-1.32-1.06-2.72-.76-1.33.28-1.98,1.38-2.08,1.57-1.32-.22-2.64-.44-3.96-.66.53-.9,1.8-2.77,4.15-3.8.81-.36,2.11-.9,3.71-.61.18.03,1.07.21,2.13.91,2.23,1.49,3.08,3.88,3.31,4.57,1.2,3.56.04,6.87-.44,8.24-1.27,3.62-3.59,5.84-4.77,6.83-.46-.12-1.21-.4-1.92-1.04-.42-.38-.71-.77-.9-1.09Z"/>
    </clipPath>
    <clipPath id="clippath-7">
      <path class="cls-29" d="M55.29,22.85c.7-.38,1.79-1.09,2.75-2.29,1.93-2.41,1.99-5.07,1.99-6.3,0-1.6.02-3.24-1.17-4.31-.51-.45-1.52-.82-2.59-.86-.36-.02-.66.01-.88.04-1.23-.28-2.46-.55-3.69-.83.45-.53,1.36-1.44,2.8-2,.62-.24,1.95-.73,3.56-.35.18.04,1.02.25,2.03.97,2.12,1.5,2.89,3.77,3.1,4.41,1.1,3.37-.07,6.36-.55,7.6-1.28,3.28-3.54,5.21-4.68,6.05-.44-.14-1.15-.44-1.82-1.07-.4-.37-.66-.75-.84-1.06Z"/>
    </clipPath>
    <clipPath id="clippath-8">
      <path class="cls-29" d="M72,27.95c.78-.45,2.01-1.27,3.1-2.69,1.99-2.6,2.08-5.35,2.09-6.41.03-1.63.05-3.31-1.15-4.41-.51-.47-1.55-.85-2.63-.9-.37-.02-.68,0-.89.04-1.25-.29-2.5-.59-3.75-.88.47-.54,1.4-1.46,2.87-2.01.63-.24,2-.73,3.64-.32.18.04,1.04.27,2.06,1.01,2.14,1.55,2.91,3.87,3.12,4.53,1.05,3.34-.08,6.28-.64,7.75-1.19,3.1-3.17,5.08-4.38,6.1-.38,0-1.09-.07-1.87-.47-.84-.42-1.33-1.01-1.55-1.33Z"/>
    </clipPath>
    <clipPath id="clippath-9">
      <path class="cls-18" d="M86.9,31.78c.77-.43,1.96-1.24,3.02-2.62,1.94-2.54,2.03-5.21,2.04-6.25.02-1.59.05-3.22-1.13-4.3-.5-.46-1.51-.83-2.57-.88-.36-.02-.66,0-.87.03-1.22-.29-2.44-.57-3.66-.86.46-.52,1.37-1.42,2.8-1.96.62-.23,1.95-.71,3.55-.32.17.04,1.01.26,2.01.98,2.09,1.52,2.83,3.77,3.04,4.42,1.03,3.26-.08,6.13-.62,7.55-1.16,3.02-3.09,4.95-4.27,5.95-.37,0-1.07-.07-1.82-.45-.81-.41-1.29-.99-1.51-1.29Z"/>
    </clipPath>
  </defs>
  <g id="Layer_1-2" data-name="Layer_1">
    <g>
      <g>
        <g>
          <path class="cls-35" d="M1.28,106.14c.68.62,1.36,1.23,2.04,1.85.6-.6,1.21-1.19,1.81-1.79-.5-1.67-2-2.37-2.87-1.99-.6.26-.96,1.06-.98,1.94Z"/>
          <path class="cls-11" d="M3.87,106.91c-.13.32-.27.65-.4.97,28.07,5.79,56.15,11.58,84.22,17.37l.55-1.08"/>
          <path class="cls-36" d="M3.87,107c28.05,5.75,56.1,11.5,84.15,17.25.14-.2.29-.39.43-.59-27.95-5.97-55.91-11.94-83.86-17.91"/>
          <path class="cls-32" d="M2.98,104.75c-.14.05-.3.11-.47.21-.28.16-.48.35-.61.5.63.5,1.27,1,1.9,1.5.36-.45.72-.9,1.09-1.34"/>
          <path class="cls-34" d="M4.74,105.91c27.92,5.92,55.84,11.84,83.75,17.77.24-.54.49-1.08.73-1.62-27.66-6.24-55.33-12.49-82.99-18.73"/>
          <path class="cls-4" d="M5.06,105.08c27.92,5.92,55.84,11.84,83.75,17.77.24-.54.49-1.08.73-1.62-27.66-6.24-55.33-12.49-82.99-18.73"/>
          <path class="cls-13" d="M3.05,104.78c.55.34,1.1.68,1.65,1.02l1.45-1.61c-.73-.52-1.46-1.04-2.19-1.56"/>
          <path class="cls-36" d="M1.89,105.46c-.18.24-.36.48-.54.72-.51-1.6-.79-2.97-.95-4-.16-1.02-.22-1.81-.28-2.49-.09-1.17-.17-2.16-.09-3.38.05-.79.1-1.28.34-2.45.45-2.25.42-2.73.74-4.5.37-2.02,4.34-22.83,15.34-80.38.22-.19.43-.38.65-.57"/>
          <path class="cls-34" d="M18.62,8.73c-.55-.14-1.1-.28-1.65-.42-.13.56-.32,1.45-.56,2.54,0,0-1.94,8.8-3.69,17.74-2.98,15.23-7.53,41.93-10.84,61.58-.09.52-.48,2.86-.57,3.38-.07,1.01-.11,1.84-.13,2.4-.21,5.33.23,7.43.44,8.28.14.56.27,1,.35,1.26.38-.29.75-.58,1.13-.87,5.49-31.87,10.97-63.74,16.46-95.6"/>
          <path class="cls-4" d="M19.3,6.37c-.39.29-.77.57-1.16.86-1.1,4.09-1.95,7.69-2.59,10.64-.54,2.48-1.36,6.26-2.14,11.27-.45,2.88-.53,3.86-1.05,7.68,0,0-.86,6.42-1.97,13.19-1.6,9.79-2.2,10.85-3.65,19.83-.76,4.7-1.2,8.31-1.47,10.58-1.19,9.93-2.07,22.34-2.21,24.23.11-.17.23-.35.36-.54.29-.4.59-.73.87-1"/>
          <path class="cls-36" d="M6.18,104.3c19.17,4.43,38.38,8.65,57.64,12.67,8.44,1.76,16.89,3.48,25.35,5.17.23-.51.46-1.03.69-1.54-27.4-6.29-54.8-12.58-82.2-18.87"/>
          <path class="cls-32" d="M4.07,102.59c.26.31.51.55.72.72.09.08.46.38,1,.69.2.11.37.2.5.25.47-.45.94-.91,1.41-1.36-.72-.6-1.43-1.21-2.15-1.81"/>
          <path class="cls-36" d="M5.26,101.48l-1.05,1c4.69-33.48,6.64-49.35,7.48-57.47.62-5.97,1.11-9.09,2.07-15.33,1-6.47,1.86-10.92,3.23-15.91.84-3.08,1.67-5.61,2.27-7.33,10.09,3.08,14.84,7.97,17.26,11.53,11.89,17.52.61,52.08-31.26,83.51Z"/>
          <path class="cls-34" d="M21.47,6.96c-.27-.13-.6-.26-.98-.38-.41-.12-.79-.19-1.11-.23-.8,3.53-1.89,8.56-3.07,14.62-1.88,9.68-3.43,19.18-5.54,35-1.56,11.75-3.44,27.08-5.28,45.36.13.29.34.69.71,1.08.69.72,1.49.97,1.87,1.07,14.7,4.08,30.46,7.91,47.22,11.27,11.93,2.4,23.47,4.37,34.55,6,.43-.33.85-.65,1.28-.98"/>
          <path class="cls-9" d="M21.34,6.8c-.51.99-1.2,2.49-1.8,4.38-.47,1.48-.69,2.6-.91,3.69-1.59,7.99-1.17,5.53-1.55,7.7-1.49,8.44-2.18,12.97-2.18,12.97-1.15,7.62-1.76,12.23-2.39,16.72-2.9,20.7-4.5,25.76-5.77,40.63-.28,3.23-.45,5.87-.54,7.49,0,.42.09,1.06.5,1.63.59.84,1.52,1.07,2.47,1.31,1.61.41,3.17,1.09,4.82,1.3,3.41.43,10.89,2.99,27.13,6.52,22.01,4.78,45.97,8.26,49.85,8.81-1.49-5.14-2.97-10.29-4.46-15.43"/>
          <g>
            <path class="cls-11" d="M23.77,5.21c-.1.07-.25.18-.43.32-.41.01-1.01.1-1.51.5-.82.65-.91,1.75-.98,2.48-.18,1.76-.61,3.5-.85,5.25,0,0-.09.62-1.29,6.65h0c-.02.32-.69,4.98-2.01,14.32-.52,3.68-.97,6.66-1.27,8.56-2.18,18.86-4.36,37.73-6.54,56.59,3.15,1.61,7.67,3.7,13.33,5.57,4.94,1.64,8.8,2.47,10.64,2.86,8.8,1.87,29.93,6.16,58.15,11.66.55-2.28,1.1-4.55,1.65-6.83C73.4,78.39,54.16,43.62,34.92,8.86c-3.71-1.22-7.43-2.44-11.14-3.66Z"/>
            <g class="cls-38">
              <path class="cls-9" d="M27.13,3.57c-.44-.07-1.37-.14-2.43.26-1.26.48-1.96,1.36-2.22,1.72-2.22,13.55-4.16,24.22-5.41,30.91-.26,1.37-.03,2.1-5.35,54.94-.05.51-.07,1.32.24,2.2.68,1.96,2.5,2.96,3.33,3.4,11.29,6.01,12.46,6.4,12.46,6.4,11.76,3.9,9.42,3.9,16.78,6.06,18.5,5.43,42.84,8.26,47.01,8.73.32-1.82.64-3.64.96-5.47"/>
            </g>
          </g>
          <path class="cls-37" d="M22.51,93.07c-2.35-9.86-3.46-18.42-4.02-25.04-1.1-13.16-.39-23.61-.04-28.8.21-3.14.49-6.08.69-8.13.65-6.88,1.07-11.17,2.13-16.51.64-3.21,1.3-5.77,1.73-7.34.07-.62.27-1.56.88-2.44.43-.63.77-.87.94-.97.34-.2.68-.28,1.12-.34.55-.07,1.53-.12,2.84.18,1.18.19,2.94.48,5.07.85,3.74.66,14.11,2.56,35.34,8.25,15.45,4.14,22.09,6.39,26.18,7.28.28.06,1.22.26,2.44.7,2.62.93,4.62,2.23,6,3.31.03.95.08,2.34.12,4.03.21,8.08.11,12.45.17,17.14.08,6.67.42,8.64.68,14.69.33,7.61.82,18.97-.87,31.13-.86,6.22-2.63,15.02-6.61,25.35-11.75.18-26.13-.9-41.05-5.17-12.54-3.59-19.63-7.77-22.56-9.62-4.9-3.08-8.63-6.2-11.19-8.55Z"/>
          <g class="cls-19">
            <path class="cls-36" d="M18.2,83.09c-2.36-10.23-3.46-19.11-3.99-25.99-1.06-13.67-.26-24.53.13-29.92.24-3.26.54-6.32.76-8.45.71-7.15,1.17-11.61,2.29-17.17.67-3.34,1.37-6,1.82-7.63.08-.65.29-1.62.92-2.54.44-.65.8-.91.97-1.01.35-.21.7-.3,1.15-.36.57-.07,1.58-.13,2.93.17,1.22.19,3.03.48,5.22.86,3.85.66,14.52,2.58,36.36,8.36,15.9,4.21,22.73,6.51,26.93,7.41.29.06,1.26.27,2.51.71,2.7.95,4.74,2.29,6.16,3.4.03.98.07,2.43.1,4.19.17,8.39.04,12.93.07,17.8.05,6.93.39,8.98.62,15.26.29,7.9.73,19.7-1.08,32.35-.93,6.47-2.8,15.61-6.95,26.37-12.11.26-26.92-.78-42.26-5.13-12.89-3.66-20.18-7.96-23.19-9.86-5.03-3.17-8.86-6.39-11.48-8.82Z"/>
          </g>
        </g>
        <g>
          <ellipse class="cls-9" cx="43.4" cy="16.72" rx="4.29" ry="4.76" transform="translate(21.35 57.68) rotate(-82.77)"/>
          <g class="cls-22">
            <ellipse class="cls-30" cx="42.61" cy="18.29" rx="4.29" ry="4.76" transform="translate(19.1 58.26) rotate(-82.77)"/>
            <ellipse class="cls-8" cx="41.71" cy="19.52" rx="4.29" ry="4.76" transform="translate(17.1 58.44) rotate(-82.77)"/>
          </g>
        </g>
        <g>
          <ellipse class="cls-9" cx="59.56" cy="20.99" rx="4.29" ry="4.76" transform="translate(31.24 77.44) rotate(-82.77)"/>
          <g class="cls-20">
            <ellipse class="cls-30" cx="58.77" cy="22.56" rx="4.29" ry="4.76" transform="translate(28.99 78.02) rotate(-82.77)"/>
            <ellipse class="cls-8" cx="57.87" cy="23.79" rx="4.29" ry="4.76" transform="translate(26.99 78.21) rotate(-82.77)"/>
          </g>
        </g>
        <g>
          <ellipse class="cls-9" cx="75.72" cy="25.47" rx="4.29" ry="4.76" transform="translate(40.92 97.38) rotate(-82.77)"/>
          <g class="cls-21">
            <ellipse class="cls-30" cx="74.92" cy="27.04" rx="4.29" ry="4.76" transform="translate(38.67 97.96) rotate(-82.77)"/>
            <ellipse class="cls-8" cx="74.03" cy="28.26" rx="4.29" ry="4.76" transform="translate(36.67 98.15) rotate(-82.77)"/>
          </g>
        </g>
        <g>
          <ellipse class="cls-9" cx="90.76" cy="29.33" rx="4.29" ry="4.76" transform="translate(50.24 115.68) rotate(-82.77)"/>
          <g class="cls-27">
            <ellipse class="cls-30" cx="89.97" cy="30.9" rx="4.29" ry="4.76" transform="translate(47.99 116.26) rotate(-82.77)"/>
            <ellipse class="cls-8" cx="89.07" cy="32.13" rx="4.29" ry="4.76" transform="translate(45.99 116.45) rotate(-82.77)"/>
          </g>
        </g>
        <g>
          <path class="cls-28" d="M39.14,18.5c.73-.46,1.84-1.29,2.82-2.65,1.97-2.73,1.98-5.6,1.96-6.93-.02-1.73-.04-3.5-1.3-4.57-.25-.22-1.32-1.06-2.72-.76-1.33.28-1.98,1.38-2.08,1.57-1.32-.22-2.64-.44-3.96-.66.53-.9,1.8-2.77,4.15-3.8.81-.36,2.11-.9,3.71-.61.18.03,1.07.21,2.13.91,2.23,1.49,3.08,3.88,3.31,4.57,1.2,3.56.04,6.87-.44,8.24-1.27,3.62-3.59,5.84-4.77,6.83-.46-.12-1.21-.4-1.92-1.04-.42-.38-.71-.77-.9-1.09Z"/>
          <g class="cls-24">
            <path class="cls-15" d="M45.06,10.43c-.32.88-.84,2.18-1.63,3.68-1.38,2.64-2.59,4.04-2.22,4.5.3.37,1.44-.07,2.09-.45,2.59-1.49,3.11-5.08,3.21-5.94"/>
            <path class="cls-3" d="M44.7,8.83c-.13.72-.11,1.22-.12,1.58-.05,2.57-1.36,5.45-2.18,6.73-.12.18-.44.68-.35.77.03.02.13.07.83-.49.88-.7,1.98-1.57,2.87-3.21.34-.64.62-1.14.78-1.89.21-.99-.02-2.09-.49-4.23-.24-1.11-.34-1.38-.49-1.38-.32,0-.69,1.23-.85,2.11Z"/>
            <path class="cls-40" d="M34.13,4.2c.45-.61,1.49-1.83,3.2-2.54.81-.34,2.87-1.2,4.69-.16,1.84,1.05,2.16,3.32,2.27,4.12.35,2.53-.78,4.54-1.15,5.15-2.89-1.81-5.77-3.61-8.66-5.42"/>
            <path class="cls-3" d="M34.51,4.5c.36-.39.9-.93,1.65-1.42.62-.4,1.75-1.15,3.07-1.19,1.88-.06,3.2,1.35,3.55,1.73,2.02,2.15,2.02,6.4.1,10.7-2.07-2.67-4.15-5.35-6.22-8.02"/>
            <path class="cls-12" d="M35.74,5.13c.16-.3.45-.76.93-1.18,1.3-1.12,2.87-.94,3.21-.9.53.06,1.46.17,2.17.96.47.53.63,1.14.69,1.47l-4.93.5"/>
            <path class="cls-40" d="M43.4,1.75c-.45.31,1.93,2.89,1.84,6.97-.04,2.08-.73,4.43.02,4.79.16.07.44.09.7,0,.49-.18.73-.72.82-.94.3-.67,1.54-4.51-.81-8.29-.9-1.46-2.24-2.76-2.57-2.53Z"/>
          </g>
        </g>
        <g>
          <path class="cls-29" d="M55.29,22.85c.7-.38,1.79-1.09,2.75-2.29,1.93-2.41,1.99-5.07,1.99-6.3,0-1.6.02-3.24-1.17-4.31-.51-.45-1.52-.82-2.59-.86-.36-.02-.66.01-.88.04-1.23-.28-2.46-.55-3.69-.83.45-.53,1.36-1.44,2.8-2,.62-.24,1.95-.73,3.56-.35.18.04,1.02.25,2.03.97,2.12,1.5,2.89,3.77,3.1,4.41,1.1,3.37-.07,6.36-.55,7.6-1.28,3.28-3.54,5.21-4.68,6.05-.44-.14-1.15-.44-1.82-1.07-.4-.37-.66-.75-.84-1.06Z"/>
          <g class="cls-23">
            <path class="cls-14" d="M61.08,15.72c-.32.8-.84,1.97-1.62,3.32-1.36,2.37-2.54,3.59-2.2,4.04.28.36,1.38.01,2.01-.3,2.5-1.24,3.06-4.53,3.17-5.32"/>
            <path class="cls-6" d="M60.77,14.21c-.13.66-.13,1.12-.14,1.46-.09,2.38-1.39,4.97-2.19,6.11-.11.16-.44.6-.35.69.02.02.12.07.8-.4.86-.6,1.92-1.34,2.8-2.81.34-.57.61-1.02.77-1.71.22-.91.01-1.93-.4-3.95-.21-1.05-.31-1.29-.45-1.31-.31-.03-.68,1.1-.85,1.91Z"/>
            <path class="cls-39" d="M50.71,9.33c.45-.54,1.46-1.61,3.11-2.17.79-.27,2.77-.95,4.49.12,1.75,1.08,2.01,3.19,2.11,3.94.3,2.37-.82,4.16-1.18,4.7-2.74-1.83-5.47-3.67-8.21-5.5"/>
            <path class="cls-6" d="M51.07,9.63c.35-.35.88-.81,1.61-1.22.6-.34,1.7-.97,2.96-.93,1.8.05,3.04,1.43,3.37,1.8,1.9,2.11,1.84,6.05-.07,9.91-1.94-2.59-3.89-5.18-5.83-7.78"/>
            <path class="cls-16" d="M52.24,10.28c.16-.27.44-.68.91-1.04,1.27-.96,2.76-.71,3.09-.65.51.09,1.4.24,2.06,1.01.44.52.59,1.09.64,1.4-1.58.06-3.16.12-4.74.18"/>
            <path class="cls-39" d="M59.63,7.58c-.44.26,1.8,2.78,1.65,6.56-.08,1.93-.77,4.06-.06,4.44.15.08.42.11.67.04.47-.14.71-.62.81-.82.3-.61,1.55-4.09-.64-7.73-.84-1.4-2.11-2.68-2.43-2.49Z"/>
            <path class="cls-7" d="M57.39,20.85c-.61,1.21-1.25,2.74-.76,3.16.64.56,2.51-1.39,3.53-.8,1.3.75,1.08,5.49-1.11,6.35-1.81.71-4.06-1.62-4.41-1.99-1.6-1.71-1.83-3.77-1.87-4.5"/>
          </g>
        </g>
        <g>
          <path class="cls-29" d="M72,27.95c.78-.45,2.01-1.27,3.1-2.69,1.99-2.6,2.08-5.35,2.09-6.41.03-1.63.05-3.31-1.15-4.41-.51-.47-1.55-.85-2.63-.9-.37-.02-.68,0-.89.04-1.25-.29-2.5-.59-3.75-.88.47-.54,1.4-1.46,2.87-2.01.63-.24,2-.73,3.64-.32.18.04,1.04.27,2.06,1.01,2.14,1.55,2.91,3.87,3.12,4.53,1.05,3.34-.08,6.28-.64,7.75-1.19,3.1-3.17,5.08-4.38,6.1-.38,0-1.09-.07-1.87-.47-.84-.42-1.33-1.01-1.55-1.33Z"/>
          <g class="cls-26">
            <path class="cls-14" d="M78.26,20.35c-.34.81-.88,2-1.68,3.37-1.41,2.4-2.63,3.64-2.28,4.1.28.37,1.4.03,2.05-.29,2.57-1.24,3.16-4.59,3.29-5.39"/>
            <path class="cls-6" d="M77.95,18.81c-.14.67-.14,1.14-.16,1.49-.11,2.42-1.47,5.06-2.3,6.21-.12.16-.45.61-.36.7.02.03.13.07.82-.4.88-.6,1.97-1.35,2.88-2.84.35-.58.63-1.03.81-1.73.23-.92.03-1.97-.37-4.03-.21-1.07-.3-1.32-.44-1.34-.31-.03-.71,1.12-.88,1.94Z"/>
            <path class="cls-39" d="M67.74,13.73c.46-.54,1.5-1.62,3.19-2.18.8-.27,2.83-.94,4.58.17,1.77,1.12,2.02,3.28,2.11,4.04.28,2.42-.87,4.24-1.25,4.79-2.77-1.9-5.55-3.8-8.32-5.7"/>
            <path class="cls-6" d="M68.1,14.04c.36-.35.91-.82,1.65-1.23.61-.34,1.74-.97,3.03-.92,1.83.07,3.09,1.49,3.42,1.87,1.92,2.17,1.81,6.18-.17,10.11-1.96-2.66-3.91-5.33-5.87-7.99"/>
            <path class="cls-16" d="M69.29,14.72c.17-.27.46-.69.94-1.05,1.3-.97,2.83-.7,3.16-.64.52.09,1.43.26,2.09,1.06.45.54.59,1.12.64,1.44-1.61.05-3.22.09-4.83.14"/>
            <path class="cls-39" d="M76.85,12.04c-.45.27,1.81,2.86,1.62,6.71-.1,1.96-.82,4.14-.1,4.52.15.08.43.12.68.05.48-.14.73-.63.83-.83.31-.62,1.62-4.15-.58-7.89-.84-1.44-2.12-2.75-2.45-2.56Z"/>
            <path class="cls-3" d="M74.07,26.41c-.61,1.21-1.25,2.74-.76,3.16.64.56,2.51-1.39,3.53-.8,1.3.75,1.08,5.49-1.11,6.35-1.81.71-4.06-1.62-4.41-1.99-1.6-1.71-1.83-3.77-1.87-4.5"/>
          </g>
        </g>
        <g>
          <path class="cls-18" d="M86.9,31.78c.77-.43,1.96-1.24,3.02-2.62,1.94-2.54,2.03-5.21,2.04-6.25.02-1.59.05-3.22-1.13-4.3-.5-.46-1.51-.83-2.57-.88-.36-.02-.66,0-.87.03-1.22-.29-2.44-.57-3.66-.86.46-.52,1.37-1.42,2.8-1.96.62-.23,1.95-.71,3.55-.32.17.04,1.01.26,2.01.98,2.09,1.52,2.83,3.77,3.04,4.42,1.03,3.26-.08,6.13-.62,7.55-1.16,3.02-3.09,4.95-4.27,5.95-.37,0-1.07-.07-1.82-.45-.81-.41-1.29-.99-1.51-1.29Z"/>
          <g class="cls-25">
            <path class="cls-31" d="M93,24.38c-.33.79-.86,1.95-1.64,3.28-1.38,2.34-2.56,3.55-2.22,4,.27.36,1.37.03,2-.28,2.5-1.21,3.09-4.47,3.21-5.26"/>
            <path class="cls-10" d="M92.7,22.87c-.14.66-.14,1.12-.15,1.45-.11,2.36-1.43,4.93-2.24,6.06-.11.16-.44.59-.35.68.02.02.12.07.8-.39.86-.59,1.92-1.31,2.81-2.76.34-.56.62-1.01.79-1.69.22-.9.03-1.92-.36-3.93-.2-1.04-.29-1.29-.43-1.3-.3-.03-.69,1.09-.86,1.89Z"/>
            <path class="cls-5" d="M82.75,17.92c.45-.53,1.46-1.58,3.11-2.13.78-.26,2.76-.91,4.47.16,1.73,1.09,1.97,3.2,2.06,3.94.27,2.36-.85,4.13-1.22,4.67-2.7-1.85-5.41-3.7-8.11-5.55"/>
            <path class="cls-10" d="M83.1,18.22c.35-.34.88-.79,1.61-1.2.6-.33,1.7-.95,2.95-.9,1.79.07,3.01,1.45,3.34,1.82,1.87,2.11,1.77,6.03-.17,9.86-1.91-2.6-3.82-5.19-5.72-7.79"/>
            <path class="cls-17" d="M84.26,18.88c.16-.27.45-.67.92-1.02,1.27-.95,2.76-.68,3.08-.62.5.09,1.39.25,2.04,1.03.44.52.57,1.09.62,1.4l-4.71.13"/>
            <path class="cls-5" d="M91.63,16.27c-.44.26,1.76,2.78,1.58,6.54-.09,1.92-.8,4.03-.1,4.41.15.08.42.12.67.05.47-.13.71-.61.81-.81.3-.6,1.58-4.05-.56-7.69-.82-1.4-2.07-2.68-2.39-2.5Z"/>
            <path class="cls-2" d="M88.91,30.28c-.59,1.18-1.21,2.67-.74,3.09.62.55,2.44-1.36,3.44-.78,1.26.74,1.06,5.36-1.08,6.2-1.77.69-3.96-1.58-4.3-1.94-1.56-1.67-1.78-3.67-1.83-4.38"/>
          </g>
        </g>
      </g>
      <g>
        <g>
          <path class="cls-33" d="M39.37,70.09c0-.06-.02-.09,0,0h0Z"/>
          <path class="cls-33" d="M75.14,80.57s.02-.02.03-.03c0-.04.01-.08.02-.11l-.06.14Z"/>
          <path class="cls-33" d="M79.6,74.53s.02-.02.03-.04c-.01,0-.02-.02-.03.04Z"/>
          <path class="cls-33" d="M59.65,87.77c-.07,0-.1.01-.13.02.04,0,.08-.02.13-.02Z"/>
          <path class="cls-33" d="M40.43,56.29s0,.02-.01.03c.01-.02.03-.04.04-.07l-.03.04Z"/>
          <path class="cls-33" d="M40.41,56.45c-.08.15-.01-.05,0-.12-.1.16-.17.33-.22.51.03.01.16-.32.22-.39Z"/>
          <path class="cls-33" d="M59.75,41.58l-.07.03.07-.03Z"/>
          <path class="cls-33" d="M60.54,89.48l-.12.02c.06,0,.1-.01.12-.02Z"/>
          <path class="cls-33" d="M55.8,42.49l-.03.07s.03-.05.03-.07Z"/>
          <path class="cls-33" d="M75.19,80.43l.02-.05s-.02.03-.02.05Z"/>
          <path class="cls-33" d="M81.51,67.83s.03-.01.05-.03c0,0,0-.02,0-.02l-.05.05Z"/>
          <path class="cls-33" d="M63.16,42.46s.01.01.02.02l.13-.07c-.08.02-.13.04-.16.06Z"/>
          <path class="cls-33" d="M81.02,58.2s-.02-.03-.03-.03c.02.17.13.59.28,1.14l.08.02-.33-1.13Z"/>
          <path class="cls-33" d="M77.68,47.65l.53.98c-.27-.36-.51-.69-.74-1-.26-.29-.5-.57-.74-.83-.47-.53-.87-1.02-1.35-1.43-.47-.41-.89-.86-1.42-1.23-.54-.36-1.09-.77-1.77-1.14l.17.05c-.2-.12-.39-.14-1.07-.44-.35-.14-.78-.42-1.5-.63-.34-.12-.74-.26-1.22-.43-.47-.15-1.03-.26-1.67-.36h0c-.18-.02-.18,0-.53-.04.3.03.59.08.88.14-.53-.01-.99.03-1.69.07-.15,0-.2-.03-.22-.05-.57.04-1.13.13-1.69.24l-.53.02c-.49.18-.22.27-1.56.58.53-.04-.61.3-.43.31-.08.02-.22.04-.35.06-.75.3-2.08,1.02-2.37,1.26,0,0,.71-.32,1.55-.6.84-.29,1.79-.53,2.21-.57-1.06.31-.27.1-.05.08l.06-.05c.64-.16.67-.06.99-.13,0,0-.01-.01-.02-.02l-.04.02s-.02-.02.01-.04c-.01-.02.01-.04.19-.07l-.03.02c.26-.08.73-.15.94-.18l.02.07c.23-.11,1.05-.17,1.88-.1.83.07,1.65.28,1.96.35.59.26,1.39.36,2.12.69,1.13.59.53.38,1.07.71.69.39-.1-.14.18,0,.28.15.51.38.76.59-.46-.31-.23-.1-.17-.02.31.23.75.57,1.11.84.35.29.62.56.77.59.77.8.76.81,1.06,1.17-.08-.14-.29-.38-.28-.4.28.35.17.13.04,0,.27.21.79.93,1.3,1.56.49.65.85,1.31.96,1.31l-.02.02c.19.06.13-.21.46.14l.14.29c.11.12.22.24.31.37.13.3.02.18.01.19.42.66.99,1.59,1.34,2.48-.06-.34-.08-.71-.17-1.05.32.75.77,2.14.94,2.24.04.16.07.32.09.49.36,1.58.47,1.02.63,1.65.05.27.12.53.14.8-.06-.26-.16-.51-.25-.76.24.76.22,1.1.33,1.73h0s0-.07,0-.07l.03.11c.08.08.23.47.37,1.02.14.78.31,1.39.41,2.67l.14.3v.96s-.09,0-.09,0c0-.94-.35-2.67-.57-3.85h-.05c.14.69.3,1.48.37,1.94.02.23.02.82-.11.41.06.14.11.28.15.42.09,1.18.14,1.77.17,2.38-.04.59-.08,1.2-.15,2.45l.05-.21c.02.49-.06.97-.14,1.1-.13.72-.17,1.48-.4,2.13-.2.65-.39,1.24-.56,1.68l.06.23c-.1.29-.44.66-.34.86l-.19.63c-.16.39-.18.66-.44,1.08h0s0,0,0,0c-.02.02-.03.05-.05.07h.01c-.49.83.09.03-.47.98-.23.27-.05.42-.33.88l-.43.37c-.63.74-.51,1.03-1.41,2.11-.47.49-.77.66-.59.23-.28.56-.07.3-.59.93-.13.05-.08-.02,0-.19-.55.47-.27.35-.65.74-.03.19-.03.45-.15.59l.17-.13c-.34.48-.84.89-1.39,1.3l-.02-.06-.53.49-.08-.03-.82.62.13-.07c-.2.14-.81.65-1.22.85v-.04c-.59.27-1.09.57-1.6.91-.53.3-1.09.61-1.76.94l.14-.16c-.5.13-.06.2-.65.38l-.07-.08c-.45.31-.66.22-1.02.3l.21.06-.66.22c-.74.2-.5-.03-.41-.11l-.47.24-.13-.09c-.33.23-.37.08-.98.33-.06-.03.09-.1-.13-.06-.34.15-.69.24-1.03.37l.63-.19-.04.18c-.65.25-.92.15-1.4.28l.33-.11c-.78.2-.84.1-1.29.1.14.02.36.05.04.1-.24.03-.13-.05-.36-.05-.04.12-.61.23-1.14.22,0-.02.02-.03.05-.04-.13.02-.2.05-.43.02l.13-.12-.44.12c-.3-.04-.73.05-.69-.03l.17-.02c-.75.02-1.49-.1-2.23-.19l-.02-.1c-.12.05-.42.02-.68-.03-.26-.07-.48-.12-.46-.03-.39-.18-1.64-.29-1.35-.42-.69-.22-1.23-.37-1.82-.52-.58-.16-1.15-.47-1.93-.88-.12-.11-.32-.22-.54-.37-.21-.16-.46-.34-.73-.53-.52-.38-1.16-.71-1.55-1.13-.43-.35-.82-.67-1.19-.98-.38-.3-.66-.67-.99-1-.31-.34-.65-.66-.96-1.05-.29-.4-.6-.82-.94-1.28-.58-1.25-1.77-2.96-2.18-4.42l-.24-.35c-.1-.49-.27-1.1-.48-1.74-.23-.64-.38-1.36-.44-2.06-.11-.33-.15-.5-.17-.58,0,.06.01.16-.04.2-.05-.4-.23-1.19-.09-1.15l.02.1c.12.04-.18-1.2-.13-1.65l-.1.25-.06-.75.05.2c-.21-1.63-.22-2.84-.05-4,.08-1.17.34-2.28.48-3.83.04.43.09-.6.25-.61.4-.69.32-1.4.5-2.02,0,0-.01-.01,0-.05l.43-1.03c-.07.69.15-.81.07-.18,1.21-2.62,3.19-5.92,5.88-7.99l-.15.06c.67-.52,1.45-1.25,2.06-1.52.57-.31,1.11-.89,1.34-1,.58-.42,1.23-.6.96-.45.67-.36,1.24-.85,2.25-1.19.2.01.85-.32,1.49-.57.64-.25,1.24-.5,1.28-.41v-.02c1.35-.26,2.55-.79,4.02-.93,0,0-.03.02-.07.04.95-.34,1.92-.66,2.92-.91-.3-.18-.61-.36-.92-.53-.91-.07-1.83-.1-2.75-.09-2.41.5-4.76,1.23-7.01,2.24-1.82.74-3.58,1.66-5.24,2.76-1.95,1.44-3.68,3.19-5.11,5.16l-1.02,1.51-.84,1.61c-.14.27-.29.53-.41.81l-.33.85c-.21.57-.45,1.12-.64,1.7l-.15,1.03c-1.04,2.67-1.17,6.35-1.14,9.39l.12.06c.1.85.02.8.02,1.01.4,3.97,1.66,7.92,3.72,11.33,2.07,3.4,5.02,6.14,8.26,7.83.3.18.94.51,1.57.8.65.23,1.29.45,1.54.58,2.32.54,4.8.86,7.16.8h-.09c.37,0,.74-.06,1.1-.09.05,0,.05.02.02.03.62-.1,1.42-.16,2.24-.32.41-.06.83-.13,1.25-.19.41-.1.81-.2,1.18-.29l-.08.04c1.09-.26,2.11-.69,3.14-1.07.98-.48,2-.9,2.91-1.49,1.89-1.06,3.57-2.44,5.11-3.92,1.54-1.49,2.82-3.23,3.97-5.06l.76-1.44.38-.72.3-.76c.2-.51.4-1.02.61-1.53.2-.51.3-1.06.46-1.59.14-.5.32-1,.41-1.52.08-.54.16-1.07.24-1.62.04-.27.07-.55.11-.83.02-.28.02-.56.03-.84.01-.56.02-1.14.03-1.71-.11-2.29-.39-4.66-.97-6.94-.05-.21-.15-.97-.53-1.93-.18-.48-.37-1.03-.58-1.61-.23-.57-.53-1.15-.8-1.74-.26-.6-.59-1.16-.91-1.69-.33-.52-.59-1.04-.9-1.46-.61-.83-1.07-1.44-1.2-1.6Z"/>
          <path class="cls-33" d="M65.36,41.29h.04c0-.05-.06-.03-.04,0Z"/>
          <polygon class="cls-33" points="79.3 53.12 79.28 53.07 79.31 53.3 79.3 53.12"/>
          <path class="cls-33" d="M71.67,44.25c.43.31.45.32.4.26-.16-.11-.29-.21-.4-.26Z"/>
          <path class="cls-33" d="M60.8,42.45c-.28.11-.16.1.01.06.28-.11.48-.19.48-.19-.15.04-.35.09-.49.13Z"/>
          <path class="cls-33" d="M62.16,42.68l-.07.07c.16-.06.15-.07.07-.07Z"/>
        </g>
        <g>
          <path class="cls-33" d="M40.19,70.74s-.06-.02,0,0h0Z"/>
          <path class="cls-33" d="M71.73,73.23s.02,0,.03,0c.02-.03.04-.06.05-.08l-.09.09Z"/>
          <path class="cls-33" d="M76.86,72.59s.02,0,.03,0c0-.02,0-.04-.03,0Z"/>
          <path class="cls-33" d="M59.88,74.25s-.07,0-.09.01c.03,0,.05-.01.09-.01Z"/>
          <path class="cls-33" d="M32.05,66.34s.01,0,.02.01c-.01-.02-.02-.03-.03-.05v.04Z"/>
          <path class="cls-33" d="M32.16,66.37c.07.09-.05.01-.09-.01.07.11.16.19.27.25.03-.04-.16-.18-.18-.24Z"/>
          <path class="cls-33" d="M35.99,59.48h-.05s.04,0,.05,0Z"/>
          <path class="cls-33" d="M60.38,76.47s-.05,0-.08.01c.04,0,.06,0,.08-.01Z"/>
          <path class="cls-33" d="M33.31,59.32l-.03.07s.03-.05.03-.07Z"/>
          <path class="cls-33" d="M71.82,73.15l.03-.03s-.02.02-.03.03Z"/>
          <path class="cls-33" d="M81.49,71.56s.02.03.04.05c0,0,.01,0,.01,0l-.05-.04Z"/>
          <path class="cls-33" d="M85.37,56.52s0,.02,0,.03h.11s-.08-.03-.11-.03Z"/>
          <path class="cls-33" d="M87.6,69.55s.01-.02,0-.03c-.1.04-.36.16-.69.33l.02.09c.22-.13.45-.24.66-.38Z"/>
          <path class="cls-33" d="M93,64.37c0,.3,0,.61-.06.92-.15-1.46-.59-2.29-.95-3.08-.4-.78-.83-1.47-1.51-2.24l.1.07c-.08-.13-.21-.17-.55-.53-.17-.18-.38-.44-.67-.81-.3-.39-.68-.91-1.24-1.57h.01c-.09-.09-.11-.06-.26-.25.13.16.25.31.37.47-.29-.2-.57-.34-.94-.62-.06-.08-.07-.13-.06-.15-.31-.23-.62-.44-.94-.64l-.23-.29c-.33-.13-.31.15-1.05-.42.23.31-.45-.13-.39,0-.03-.04-.11-.11-.18-.18-.5-.23-1.47-.57-1.74-.56,0,0,.48.26.97.6.5.34,1.02.76,1.21.97-.63-.39-.18-.07-.08.04h.06c.36.24.31.33.47.47,0,0,0-.02,0-.03h-.03s0-.03.03-.03c0-.02.03-.03.13.04h-.03c.17.08.42.27.53.35l-.05.07c.18.02.59.39.96.81.37.42.7.88.84,1.04.22.37.67.68.98,1.13.52.68.17.41.38.79.28.45.02-.15.15.02l.28.58c-.22-.29-.15-.1-.14-.02.32.45.62,1.24.85,1.3.28.67.2.7.32.97-.01-.1-.07-.3-.04-.31.05.29.07.11.04,0,.12.18.3.73.35,1.21.08.49.03.88.13.92h-.04c.14.09.3-.06.36.21l-.08.18c.02.09.01.19.01.28-.09.17-.1.07-.12.07-.04.46-.39,1.02-.79,1.44.22-.08.48-.16.68-.28-.34.41-1.11.94-1.11,1.09l-.32.1c-.96.43-.5.53-.89.71l-.52.16.44-.28c-.47.22-.68.28-1.08.4h0s.05,0,.05,0l-.06.04c-.02.1-.23.27-.57.43-.47.22-.81.49-1.65.66l-.14.22c-.21.06-.42.1-.63.14l-.04-.11c.59-.2,1.65-.69,2.34-1.04v-.05c-.42.21-.89.46-1.18.58-.15.04-.55.07-.32-.11l-.22.21c-1.46.57-1.47.58-3.09.93h.15c-.3.15-.61.26-.72.19-.96.25-1.98.42-2.64.42l-.11.17c-.21.04-.56-.1-.62.11l-.43.15c-.28.05-.44.16-.78.14h0s-.04,0-.06,0h0c-.65.08.03.14-.72.19-.25-.05-.23.22-.59.25l-.39-.13c-.67,0-.75.22-1.7.36-.47,0-.71-.14-.43-.33-.39.24-.17.14-.71.31-.09-.06-.04-.09.07-.17-.5-.02-.29.11-.66.15-.09.15-.18.39-.3.41l.15.03c-.38.12-.81.22-1.27.19v-.07s-.47.09-.47.09l-.04-.09-.69.1h.1c-.16.04-.69.13-1.01.11v-.05c-.87-.08-1.57.18-2.58.26l.13-.11c-.35-.08-.08.16-.5.14l-.03-.12c-.35.19-.47,0-.72-.06l.13.16h-.47c-.52-.04-.33-.21-.25-.3l-.35.14-.07-.14c-.25.18-.26-.02-.7.09-.04-.05.07-.09-.08-.11l-.74.21.45-.09-.05.21c-.46.16-.63-.02-.97.04l.23-.06c-.54.06-.57-.04-.88-.08.1.04.24.1.02.13-.16.01-.09-.07-.24-.1-.04.14-.43.22-.78.16,0-.02.01-.04.04-.05-.09.02-.14.06-.29.03l.09-.16-.3.15c-.2-.05-.5.05-.47-.05l.12-.03-1.52-.1-.02-.13c-.16.17-.83-.1-.79.12-.28-.12-1.14,0-.95-.22-.99-.11-1.56.1-2.75-.15-.41-.26-1.58-.35-2.35-.48-1.51-.19-2.5-.24-4.02-.55-.85-.47-2.28-.48-3.21-.92l-.3.03c-.58-.38-1.61-.5-2.43-.99-.23-.04-.35-.07-.4-.09.04.02.09.07.08.14-.23-.15-.75-.29-.66-.41h.07c.09-.11-.78-.22-1-.46l.08.21-.44-.24.13.03c-1.06-.3-1.77-.68-2.42-1.1-.67-.39-1.28-.84-2.23-1.25.32.01-.38-.15-.29-.33-.28-.49-.81-.5-1.17-.72,0,0-.02.01-.04,0l-.55-.48c.49.1-.53-.19-.09-.08-.68-.68-1.43-1.44-2.14-2.3-.69-.84-1.34-1.88-1.28-2.57l-.06.06c0-.34.08-.67.4-.78.24-.1.51-.5.66-.55.34-.27.82-.13.62-.1.43-.15.85-.44,1.55-.42.24.15,1.89-.3,1.92-.06v-.02c.9.16,1.77-.06,2.73.16,0,0-.02.01-.05.03.68-.17,1.37-.33,2.07-.47l-.48-.82c-.57-.27-1.14-.53-1.73-.78-1.64-.07-3.28-.08-4.98.16-.68.04-1.39.14-2.12.34-.72.22-1.57.57-2.26,1.43-.4.55-.59,1.26-.57,1.88.01.62.17,1.14.36,1.6.38.91.89,1.63,1.41,2.28,1.05,1.3,2.29,2.43,3.58,3.41l.66.27c1.38,1.36,3.65,2.3,5.41,3.29l.1-.11c.52.23.45.3.57.38,4.89,2.08,10.24,3.01,14.89,3.73.44.14,1.82.2,2.17.33.77-.01,1.56-.02,2.34-.02.79.02,1.57.05,2.33.07l-.06.02.72-.03s.03.03.01.04c.81-.14,2.09,0,3.08.01l-.06.02c5.79-.22,11.07-1.11,16.72-2.22,2.67-.42,5.6-1.56,8.54-2.93.28-.09,1.93-.88,3.26-2.48.66-.79,1.14-1.87,1.22-2.8.09-.95-.11-1.53-.15-1.7Z"/>
          <path class="cls-33" d="M87.25,56.58l.02.02s0-.05-.02-.02Z"/>
          <polygon class="cls-33" points="90.39 67.64 90.41 67.61 90.26 67.66 90.39 67.64"/>
          <path class="cls-33" d="M89.2,61.09c.19.29.21.3.21.24-.07-.1-.14-.19-.21-.24Z"/>
          <path class="cls-33" d="M84.5,55c-.18-.09-.13-.03-.04.06.19.09.32.15.32.15-.08-.06-.2-.15-.28-.21Z"/>
          <path class="cls-33" d="M84.83,56.11l-.08.02c.11.04.11.03.08-.02Z"/>
        </g>
        <g>
          <path class="cls-33" d="M48.43,66.55s-.04,0,0,0h0Z"/>
          <path class="cls-33" d="M69.46,67.5s.01,0,.02,0c.02-.02.03-.04.04-.06l-.06.06Z"/>
          <path class="cls-33" d="M72.84,67.61h.02s0-.02-.02,0Z"/>
          <path class="cls-33" d="M61.66,67.52s-.05,0-.06,0c.02,0,.03,0,.06,0Z"/>
          <path class="cls-33" d="M42.28,65.88s0,0,.01,0c-.01,0-.02-.01-.03-.02l.02.02Z"/>
          <path class="cls-33" d="M42.36,65.85c.07.03-.03.03-.06.03.08.04.16.06.24.06,0-.04-.15-.06-.18-.09Z"/>
          <path class="cls-33" d="M36.53,62.29l-.02.03s.02-.02.02-.03Z"/>
          <path class="cls-33" d="M61.92,69.31s-.03,0-.05,0c.03,0,.04,0,.05,0Z"/>
          <path class="cls-33" d="M35.24,63.16l.03.05s-.02-.04-.03-.05Z"/>
          <path class="cls-33" d="M69.53,67.44l.02-.02s-.02.01-.02.02Z"/>
          <path class="cls-33" d="M75.95,67.52s.01.03.02.04h0l-.03-.04Z"/>
          <path class="cls-33" d="M84.59,60.72v.02s.06.03.06.03c-.02-.02-.04-.04-.06-.05Z"/>
          <path class="cls-33" d="M80.2,67.32s.01-.01.01-.02c-.07,0-.26.02-.5.06v.07c.16-.03.33-.07.49-.11Z"/>
          <path class="cls-33" d="M85.32,67.53l-.54.11c.74-.37,1.32-.76,1.78-1.37.44-.67.56-1.34.46-2.14.01.03.02.06.04.09.01-.12-.07-.2-.15-.56-.11-.35-.22-.97-.6-2.05h.01c-.04-.07-.07-.06-.11-.21l.12.38c-.15-.18-.3-.33-.47-.58-.02-.06,0-.1,0-.11-.14-.21-.29-.4-.44-.59l-.06-.23c-.17-.15-.26.05-.55-.48.04.26-.25-.17-.25-.07-.01-.04-.03-.1-.05-.16-.23-.26-.7-.71-.86-.78,0,0,.7,1.18.79,1.55-.27-.39-.09-.09-.07.01h.05c.15.25.09.3.15.43,0,0,0-.01.01-.02h-.02s.02-.03.03-.02c.01-.01.03-.01.07.05h-.02c.08.08.19.25.24.33l-.06.04c.26.09.59,1.29.67,1.54.03.28.26.55.31.89.1.52-.04.28-.06.54,0,.32.07-.07.1.05-.01.13-.06.26-.08.38-.01-.21-.05-.1-.08-.06,0,.32-.25.72-.17.83-.23.28-.3.22-.4.33.07-.01.14-.08.16-.06-.14.07-.03.07.02.03-.04.11-.33.28-.62.4-.28.13-.59.2-.57.29v-.03c-.02.13.12.19-.03.33h-.15s-.17.12-.17.12c-.14.01-.09-.04-.09-.05-.28.18-.76.23-1.14.34l.5.18c-.35.04-.99.04-1.04.15l-.23-.06c-.71-.05-.45.19-.74.18l-.36-.06.34-.05c-.35,0-.49-.02-.78-.04h0s.03,0,.04.02h-.05c-.03.07-.2.15-.45.18-.35.03-.61.14-1.17.09l-.12.13-.42-.02v-.09c.4-.04,1.15-.17,1.67-.23v-.04c-.3.04-.65.12-.85.14-.1,0-.37-.07-.19-.16l-.18.11c-1.03.12-1.04.11-2.12.1l.1.04c-.21.05-.42.09-.49.01-.65.02-1.33,0-1.76-.11l-.09.11c-.14,0-.35-.15-.41,0l-.29.06c-.19,0-.3.06-.52,0h0s0,0,0,0h-.04s0,0,0,0c-.43-.04,0,.1-.48.05-.16-.08-.17.14-.41.12l-.24-.15c-.43-.08-.5.08-1.13.08-.3-.06-.45-.19-.25-.31-.27.14-.12.09-.49.16-.06-.06-.02-.07.06-.13-.32-.07-.2.05-.44.05-.07.11-.15.29-.23.3l.09.04c-.26.06-.54.09-.84.03v-.06s-.31.03-.31.03l-.02-.07h-.46s.06.03.06.03c-.11,0-.46.02-.66-.02v-.04c-.56-.14-1.03.02-1.69.01l.09-.08c-.22-.09-.07.12-.33.08v-.1c-.25.13-.32-.04-.48-.09l.07.13-.31-.04c-.34-.06-.2-.17-.15-.24l-.23.1-.04-.12c-.17.13-.17-.03-.47.03-.02-.04.05-.07-.05-.09l-.49.15.3-.06-.04.17c-.31.12-.41-.03-.64,0l.15-.04c-.36.03-.38-.05-.58-.09.06.03.16.09,0,.1-.11,0-.05-.06-.15-.09-.03.11-.29.16-.52.1,0-.02,0-.03.02-.04-.06.02-.09.04-.19.01l.07-.12-.2.11c-.13-.04-.33.04-.31-.04l.08-.02-1-.08v-.1c-.12.13-.55-.08-.53.09-.18-.1-.75.03-.63-.16-.66-.05-1.02.12-1.82-.03-.28-.18-1.06-.18-1.57-.23-1.01,0-1.66.02-2.69,0-.6-.28-1.54-.04-2.19-.23l-.19.08c-.43-.19-1.11-.07-1.72-.27-.16.03-.24.03-.27.03.03,0,.07.03.08.09-.17-.06-.53-.05-.5-.16h.05c.04-.12-.54,0-.72-.13l.09.14-.33-.06h.09c-1.48.1-2.08-.38-3.46-.32.2-.11-.28.03-.27-.12-.31-.24-.63-.05-.92-.05,0,0,0,.02-.02.02l-.48-.1c.32-.14-.37.09-.08-.02-1.23-.35-2.9-.53-4.27-1.01l.05.06c-.35-.11-.79-.2-1.01-.38-.22-.17-.58-.11-.68-.15-.3-.05-.42-.33-.32-.26-.25-.13-.58-.16-.62-.39.06-.06-.04-.18-.03-.33,0-.15.09-.28.17-.24h0c.38-.25.72-.72,1.32-.9,0,0,0,.02-.02.04.28-.35.6-.7.93-1.04l-.59-.4c-.42.01-.85.03-1.3.1-.49.3-.98.61-1.46,1.14-.28.31-.54.77-.58,1.22-.05.46.1.92.37,1.29.1.15.22.31.34.42.1.11.2.19.31.28.21.17.41.31.62.44.41.25.82.45,1.23.63,2.04.68,4.05,1.01,6.06,1.32l.45-.07c1.15.42,2.7.34,3.95.65l.04-.11c.36.03.33.1.41.13,3.34.34,6.79.44,9.79.76.29.1,1.17.1,1.39.19.98-.09,2.02-.04,3,.02h-.04s.46,0,.46,0c.02.01.02.02,0,.03.52-.08,1.34.05,1.97.12h-.04c3.72.14,7.18-.01,10.9-.02,1.74.12,3.73-.3,5.75-.44.19.03,1.3-.13,2.41-.44,1.11-.27,2.24-.86,2.41-1Z"/>
          <path class="cls-33" d="M85.86,61.08h0s.01-.02,0,0Z"/>
          <polygon class="cls-33" points="82.49 67.01 82.51 67.01 82.41 66.97 82.49 67.01"/>
          <path class="cls-33" d="M85.67,64.31c-.01.2,0,.21.02.18,0-.07,0-.14-.02-.18Z"/>
          <path class="cls-33" d="M84.55,59.51c-.08-.1-.07-.04-.05.03.09.1.15.16.15.16-.03-.05-.08-.15-.1-.2Z"/>
          <path class="cls-33" d="M84.37,60.34h-.06c.05.05.06.03.06,0Z"/>
        </g>
      </g>
    </g>
  </g>
</svg>