<?xml version="1.0" encoding="UTF-8"?>
<svg id="Layer_2" xmlns="http://www.w3.org/2000/svg" xmlns:xlink="http://www.w3.org/1999/xlink" viewBox="0 0 136.71 153.47">
  <defs>
    <style>
      .cls-1 {
        fill: none;
      }

      .cls-2 {
        fill: #010101;
      }

      .cls-3 {
        fill: #efe34d;
      }

      .cls-4 {
        fill: #c4c4c4;
      }

      .cls-5 {
        fill: #fff;
      }

      .cls-6 {
        fill: #312417;
      }

      .cls-7 {
        clip-path: url(#clippath);
      }
    </style>
    <clipPath id="clippath">
      <path class="cls-6" d="M121.07,93.16c.21-1.59-.07-2.78-.24-3.56-1.63-7.78.32-18.13.71-20.15.62-3.2,2.94-12.06,13.85-21.5-.77-.53-2.55-1.94-3.17-4.32-.87-3.33.89-7.22,4.49-9.5-.8.17-8.78,1.71-14.83-3.92-4.32-4.01-4.95-9.16-5.08-10.54-3.59,4.77-6.81,5.17-7.82,5.22-6.27.31-13.71-8.3-15.65-22.28-4.19,5.49-11.01,7.92-17.07,6.16-6.54-1.9-9.31-7.84-9.72-8.77-7.25,12.68-19.06,18.27-27.02,15.17-1.44-.56-5.02-2.29-7.82-7.82,2.69,10.61-.81,19.18-5.93,20.86-.72.24-3.62,1.04-8.06-1.66,2.92,7.86,2.62,14.1,2.13,17.54-.64,4.57-1.89,6.29-2.61,7.11-3.86,4.42-10.66,3.7-11.85,3.56,2.67,1.6,7.3,4.81,6.87,8.06-.11.86-.87,1.95-2.37,4.14-.95,1.39-1.92,2.79-3.52,4.62-3.81,4.37-6.64,5.97-6.35,6.49.42.74,5.93-3.22,13.39-2.75,2.26.14,5.54.35,7.15,2.43,2.38,3.07.6,9.53-4.68,15.77l6.34,8.88s20,12.73,33.9,21.57c0,0,1.61.34,3.95,1.21,4.28,1.6,6.62,2.34,8.37,4.47,1.11,1.35,1.53,2.66,1.9,3.79,1.21,3.74.66,7.05.24,8.77,3.4-4.55,4.33-8.27,4.5-10.9.1-1.46,0-3.19,1.19-4.74,1.51-1.98,4.01-2.26,5.69-2.61,5.3-1.09,4.69-3.25,12.09-6.64,9.71-4.44,12.82-2.08,16.59-6.4,2.58-2.96.84-3.9,4.27-8.53,2.83-3.83,5.65-5.39,6.16-9.24Z"/>
    </clipPath>
  </defs>
  <g id="Layer_1-2" data-name="Layer_1">
    <g id="dxSZYA">
      <path class="cls-5" d="M.02,78.06c1.35.24,5.52,1.17,8.49,4.89,3.37,4.21,3.85,10.33,1.29,15.7,8.05,1.49,15.8-1.88,19.01-7.94,4.87-9.22-2.36-21.65-8.58-22.66-1.84-.3-4.55,1.12-9.9,3.96-4.31,2.29-7.8,4.43-10.31,6.06Z"/>
      <path class="cls-4" d="M11.16,95.44c-2.6,4.5-5.19,9-7.79,13.5,4.31.05,9.31.88,11.84,4.38,4.84,6.69-2.49,18.6.77,20.85,1.85,1.28,4.43-3.16,11.07-4.12,7.74-1.12,14.51,4.14,17.5,6.43,4.04,3.09,6.55,6.5,7.98,8.75,5.48-2.78,11.67-2.37,15.7,1.03,2.91,2.46,3.82,5.75,4.12,7.21,1.56-9.4,9-15.35,15.7-14.67,6.01.61,9.54,6.37,10.04,7.21-.79-4.63,1.15-8.99,4.63-10.81,2.86-1.5,5.8-.77,6.69-.51.61-1.88,1.73-4.45,3.86-6.95.99-1.16,4.1-4.71,9.52-6.18,2.9-.79,5.4-.69,6.95-.51-.99-.92-8.04-7.74-6.95-17.24.42-3.69,1.93-6.51,3.09-8.24"/>
      <g>
        <path class="cls-6" d="M121.07,93.16c.21-1.59-.07-2.78-.24-3.56-1.63-7.78.32-18.13.71-20.15.62-3.2,2.94-12.06,13.85-21.5-.77-.53-2.55-1.94-3.17-4.32-.87-3.33.89-7.22,4.49-9.5-.8.17-8.78,1.71-14.83-3.92-4.32-4.01-4.95-9.16-5.08-10.54-3.59,4.77-6.81,5.17-7.82,5.22-6.27.31-13.71-8.3-15.65-22.28-4.19,5.49-11.01,7.92-17.07,6.16-6.54-1.9-9.31-7.84-9.72-8.77-7.25,12.68-19.06,18.27-27.02,15.17-1.44-.56-5.02-2.29-7.82-7.82,2.69,10.61-.81,19.18-5.93,20.86-.72.24-3.62,1.04-8.06-1.66,2.92,7.86,2.62,14.1,2.13,17.54-.64,4.57-1.89,6.29-2.61,7.11-3.86,4.42-10.66,3.7-11.85,3.56,2.67,1.6,7.3,4.81,6.87,8.06-.11.86-.87,1.95-2.37,4.14-.95,1.39-1.92,2.79-3.52,4.62-3.81,4.37-6.64,5.97-6.35,6.49.42.74,5.93-3.22,13.39-2.75,2.26.14,5.54.35,7.15,2.43,2.38,3.07.6,9.53-4.68,15.77l6.34,8.88s20,12.73,33.9,21.57c0,0,1.61.34,3.95,1.21,4.28,1.6,6.62,2.34,8.37,4.47,1.11,1.35,1.53,2.66,1.9,3.79,1.21,3.74.66,7.05.24,8.77,3.4-4.55,4.33-8.27,4.5-10.9.1-1.46,0-3.19,1.19-4.74,1.51-1.98,4.01-2.26,5.69-2.61,5.3-1.09,4.69-3.25,12.09-6.64,9.71-4.44,12.82-2.08,16.59-6.4,2.58-2.96.84-3.9,4.27-8.53,2.83-3.83,5.65-5.39,6.16-9.24Z"/>
        <g class="cls-7">
          <g id="zuQhEZ">
            <path class="cls-3" d="M38.21,150.11c-7.67-14.35-10.71-27.22-12.05-35.71-1.33-8.46-4.51-30.43,5.36-54.46,1.12-2.74,1.98-4.82,3.57-7.59,8.72-15.17,25.6-26.72,44.19-28.12,5.75-.43,10.17.21,11.61.45,28.12,4.58,46.42,39.73,46.42,39.73,26.97,27.19,53.94,54.38,80.91,81.57"/>
            <path class="cls-5" d="M82.96,55.99c-1.67-3.88-.02-7.81.45-8.93.47-1.13,2.15-5.15,6.25-6.7,5.05-1.91,11.08.96,13.84,5.36.71,1.13,2.82,4.94,1.34,9.37-1.57,4.72-5.97,6.43-6.7,6.7-5.56,2.05-12.9-.5-15.18-5.8Z"/>
            <circle class="cls-2" cx="90.55" cy="52.86" r="4.91"/>
            <path class="cls-5" d="M90.55,65.36c.8,3.42,2.47,10.59-2.23,16.07-4.04,4.71-11.15,6.29-16.96,4.02-9.27-3.63-9.79-14.94-9.82-16.07-.04-1.35-.17-11.17,7.59-15.62,3.87-2.22,9.28-2.87,13.84-.45,5.45,2.9,6.8,8.67,7.59,12.05Z"/>
            <path class="cls-2" d="M81.4,66.87c-.37,1.36-1.14,4.21-3.85,5.26-2.32.9-5.14.1-6.76-1.81-2.58-3.05-.61-7.15-.41-7.55.24-.48,2.07-3.98,5.66-4.08,1.79-.05,3.83.75,4.98,2.48,1.38,2.06.75,4.36.39,5.71Z"/>
            <path class="cls-1" d="M51.72,76.07c2.19-2.22,6.61-7.31,8.48-15.18,1.25-5.23.9-9.7.45-12.5"/>
            <path class="cls-1" d="M76.27,33.22c.75.84,1.93,2.02,3.57,3.12,4.25,2.87,8.6,3.27,12.5,3.57,2.38.19,5.77.24,9.82-.45"/>
          </g>
        </g>
      </g>
      <path class="cls-4" d="M135.39,47.95c-1.26,1.79-3.99,6.2-4.12,12.35-.07,3.69.81,6.65,1.54,8.49-1.17,1.11-2.85,2.96-4.12,5.66-.78,1.66-2.76,6.5-1.29,12.35,1.87,7.47,7.93,10.98,9.01,11.58-2.06-.46-5.03-1.24-8.49-2.57-1.85-.71-3.22-1.24-4.12-1.8-5.68-3.55-4.34-15.97-4.12-18.02,1.51-14,11.05-23.86,15.7-28.05Z"/>
    </g>
  </g>
</svg>